<?xml version="1.0" encoding="UTF-8" standalone="no"?><!DOCTYPE svg PUBLIC "-//W3C//DTD SVG 1.1//EN" "http://www.w3.org/Graphics/SVG/1.1/DTD/svg11.dtd"><svg width="100%" height="100%" viewBox="0 0 492 492" version="1.1" xmlns="http://www.w3.org/2000/svg" xmlns:xlink="http://www.w3.org/1999/xlink" xml:space="preserve" xmlns:serif="http://www.serif.com/" style="fill-rule:evenodd;clip-rule:evenodd;stroke-linejoin:round;stroke-miterlimit:1.41421;"><path d="M464.344,207.418l0.768,0.168l-329.224,0l103.496,-103.724c5.068,-5.064 7.848,-11.924 7.848,-19.124c0,-7.2 -2.78,-14.012 -7.848,-19.088l-16.104,-16.112c-5.064,-5.064 -11.812,-7.864 -19.008,-7.864c-7.2,0 -13.952,2.78 -19.016,7.844l-177.412,177.396c-5.084,5.084 -7.864,11.856 -7.844,19.06c-0.02,7.244 2.76,14.02 7.844,19.096l177.412,177.412c5.064,5.06 11.812,7.844 19.016,7.844c7.196,0 13.944,-2.788 19.008,-7.844l16.104,-16.112c5.068,-5.056 7.848,-11.808 7.848,-19.008c0,-7.196 -2.78,-13.592 -7.848,-18.652l-104.664,-104.304l329.992,0c14.828,0 27.288,-12.78 27.288,-27.6l0,-22.788c0,-14.82 -12.828,-26.6 -27.656,-26.6Z" style="fill:#b4b4b4;fill-rule:nonzero;"/></svg>