<svg viewBox="0 0 456 488" xmlns="http://www.w3.org/2000/svg" fill-rule="evenodd" clip-rule="evenodd" stroke-linejoin="round" stroke-miterlimit="1.41421">
<g fill="#cc8718" fill-rule="nonzero">
<path d="M39.323 203.641c15.664 0 29.813-9.405 35.872-23.854 25.017-59.604 83.842-101.61 152.42-101.61 37.797 0 72.449 12.955 100.23 34.442l-21.775 3.371c-7.438 1.153-13.224 7.054-14.232 14.512-1.01 7.454 3.008 14.686 9.867 17.768l119.746 53.872c5.249 2.357 11.33 1.904 16.168-1.205 4.83-3.114 7.764-8.458 7.796-14.208l.621-131.943c.042-7.506-4.851-14.144-12.024-16.332-7.185-2.188-14.947.589-19.104 6.837l-16.505 24.805C354.398 26.778 294.1 0 227.615 0 126.806 0 40.133 61.562 3.167 149.06c-5.134 12.128-3.84 26.015 3.429 36.987 7.269 10.976 19.556 17.594 32.727 17.594zM448.635 301.184c-7.27-10.977-19.558-17.594-32.728-17.594-15.664 0-29.813 9.405-35.872 23.854-25.018 59.604-83.843 101.61-152.42 101.61-37.798 0-72.45-12.955-100.232-34.442l21.776-3.369c7.437-1.153 13.223-7.055 14.233-14.514 1.009-7.453-3.008-14.686-9.867-17.768L33.779 285.089c-5.25-2.356-11.33-1.905-16.169 1.205-4.829 3.114-7.764 8.458-7.795 14.207l-.622 131.943c-.042 7.506 4.85 14.144 12.024 16.332 7.185 2.188 14.948-.59 19.104-6.839l16.505-24.805c44.004 43.32 104.303 70.098 170.788 70.098 100.811 0 187.481-61.561 224.446-149.059 5.137-12.128 3.843-26.014-3.425-36.987z"/>
</g>
</svg>